<?xml version="1.0" encoding="UTF-8"?>
<svg width="512pt" height="512pt" version="1.1" viewBox="0 0 512 512" xmlns="http://www.w3.org/2000/svg">
 <g>
  <path d="m512 256c0 141.39-114.61 256-256 256s-256-114.61-256-256 114.61-256 256-256 256 114.61 256 256" fill="#0578be"/>
  <path d="m404.82 404.82h-297.63v-297.63h297.64zm-285.23-12.398h272.83v-272.83h-272.83z" fill="#fff"/>
  <path d="m373.81 193.99h-235.62v-49.605h235.63zm-223.23-12.402h210.82v-24.805l-210.82 0.003906z" fill="#fff"/>
  <path d="m373.81 256h-235.62v-49.605h235.63zm-223.23-12.402h210.82v-24.805l-210.82 0.003906z" fill="#fff"/>
  <path d="m373.81 318.01h-235.62v-49.605h235.63zm-223.23-12.402h210.82v-24.805l-210.82 0.003907z" fill="#fff"/>
 </g>
</svg>
